<svg width="31" height="30" viewBox="0 0 31 30" fill="none" xmlns="http://www.w3.org/2000/svg">
<path d="M9.75 30C8.925 30 8.219 29.7065 7.632 29.1195C7.044 28.5315 6.75 27.825 6.75 27C6.75 26.175 7.044 25.4685 7.632 24.8805C8.219 24.2935 8.925 24 9.75 24C10.575 24 11.281 24.2935 11.868 24.8805C12.456 25.4685 12.75 26.175 12.75 27C12.75 27.825 12.456 28.5315 11.868 29.1195C11.281 29.7065 10.575 30 9.75 30ZM24.75 30C23.925 30 23.219 29.7065 22.632 29.1195C22.044 28.5315 21.75 27.825 21.75 27C21.75 26.175 22.044 25.4685 22.632 24.8805C23.219 24.2935 23.925 24 24.75 24C25.575 24 26.2815 24.2935 26.8695 24.8805C27.4565 25.4685 27.75 26.175 27.75 27C27.75 27.825 27.4565 28.5315 26.8695 29.1195C26.2815 29.7065 25.575 30 24.75 30ZM8.475 6L12.075 13.5H22.575L26.7 6H8.475ZM9.75 22.5C8.625 22.5 7.775 22.006 7.2 21.018C6.625 20.031 6.6 19.05 7.125 18.075L9.15 14.4L3.75 3H2.2125C1.7875 3 1.4375 2.856 1.1625 2.568C0.8875 2.281 0.75 1.925 0.75 1.5C0.75 1.075 0.894 0.7185 1.182 0.4305C1.469 0.1435 1.825 0 2.25 0H4.6875C4.9625 0 5.225 0.0750001 5.475 0.225C5.725 0.375 5.9125 0.5875 6.0375 0.8625L7.05 3H29.175C29.85 3 30.3125 3.25 30.5625 3.75C30.8125 4.25 30.8 4.775 30.525 5.325L25.2 14.925C24.925 15.425 24.5625 15.8125 24.1125 16.0875C23.6625 16.3625 23.15 16.5 22.575 16.5H11.4L9.75 19.5H26.2875C26.7125 19.5 27.0625 19.6435 27.3375 19.9305C27.6125 20.2185 27.75 20.575 27.75 21C27.75 21.425 27.606 21.781 27.318 22.068C27.031 22.356 26.675 22.5 26.25 22.5H9.75Z" fill="white"/>
</svg>
